<svg width="149" height="35" viewBox="0 0 149 35" fill="none" xmlns="http://www.w3.org/2000/svg">
<path d="M93.9541 8.74658C94.2338 8.74658 94.4625 8.96013 94.4785 9.229L94.4795 9.25928V12.686H98.4102C98.6898 12.686 98.9185 12.8987 98.9346 13.1675L98.9355 13.1978V15.2466C98.9355 15.5193 98.7171 15.7427 98.4414 15.7583H94.4795V23.2026C94.4795 25.0533 95.3393 25.9067 97.1846 25.9067C97.5485 25.9055 97.9107 25.8541 98.2598 25.7534C98.4165 25.71 98.5849 25.74 98.7158 25.8345C98.8374 25.9223 98.914 26.0567 98.9268 26.2026L98.9287 26.2368V28.3521C98.9265 28.5571 98.7987 28.7412 98.6045 28.8198C97.779 29.1185 96.9026 29.2603 96.0225 29.2378C92.7569 29.2378 90.7988 27.2837 90.7598 24.0112L90.7588 23.9116V15.7671H88.7754C88.4958 15.7671 88.2672 15.5543 88.251 15.2856L88.25 15.2554V13.2065C88.25 12.9339 88.4686 12.7105 88.7441 12.6948L88.7754 12.6938H90.7559V9.25928C90.7558 8.98982 90.9691 8.76838 91.2412 8.74854L91.2725 8.74658H93.9541ZM69.2998 12.2925C71.6288 12.2925 73.6432 13.2126 74.8438 14.8179L74.8945 14.8862L75.085 15.1489V13.1997C75.0849 12.9301 75.299 12.7086 75.5713 12.689L75.6016 12.687H78.251C78.5306 12.6872 78.7594 12.9007 78.7754 13.1694L78.7764 13.1997V28.3335C78.7726 28.601 78.5584 28.8188 78.2881 28.8374L78.2578 28.8384H75.6016C75.3251 28.8339 75.1015 28.6218 75.0859 28.356L75.085 28.3267V26.2417L74.8945 26.5063C73.6584 28.2137 71.5654 29.2378 69.2998 29.2378C64.7722 29.2376 61.2266 25.5175 61.2266 20.7661C61.2267 16.0149 64.7723 12.2927 69.2998 12.2925ZM105.432 12.687C105.711 12.6871 105.94 12.9006 105.956 13.1694L105.957 13.1997V21.6997C105.957 24.3136 107.352 25.8725 109.689 25.8726C112.095 25.8726 113.664 24.0755 113.695 21.2847V13.1997C113.695 12.9269 113.915 12.7036 114.19 12.688L114.221 12.687H116.945C117.225 12.6871 117.454 12.9006 117.47 13.1694L117.471 13.1997V28.3325C117.471 28.6053 117.251 28.8287 116.976 28.8442L116.945 28.8452H114.221C113.941 28.8452 113.712 28.6316 113.696 28.3628L113.695 28.3325V26.4272L113.501 26.7163C112.414 28.3432 110.635 29.2377 108.492 29.2378C104.649 29.2378 102.246 26.6821 102.191 22.5591L102.19 22.4341V13.1997C102.19 12.9271 102.409 12.7037 102.685 12.688L102.716 12.687H105.432ZM139.461 12.2925C141.799 12.2925 143.813 13.2125 145.014 14.8179L145.063 14.8862L145.253 15.1489V13.1997C145.253 12.927 145.472 12.7037 145.747 12.688L145.778 12.687H148.426C148.705 12.6871 148.934 12.9006 148.95 13.1694L148.951 13.1997V28.3335C148.947 28.6003 148.734 28.818 148.465 28.8374L148.435 28.8384H145.778C145.499 28.8384 145.27 28.6248 145.254 28.356L145.253 28.3267V26.2417L145.063 26.5063C143.82 28.2135 141.737 29.2378 139.461 29.2378C134.935 29.2377 131.39 25.5175 131.39 20.7661C131.39 16.0148 134.935 12.2926 139.461 12.2925ZM130.003 12.356C130.271 12.3708 130.483 12.5801 130.498 12.8384L130.499 12.8687V15.5679C130.497 15.7065 130.437 15.8383 130.333 15.9331C130.229 16.0281 130.09 16.0778 129.947 16.0708C129.854 16.0612 129.755 16.0595 129.654 16.0591H129.578C126.696 16.0591 124.824 18.243 124.79 21.6313L124.789 21.7339V28.3335C124.789 28.606 124.57 28.8286 124.295 28.8442L124.264 28.8452H121.574C121.295 28.8451 121.066 28.6316 121.05 28.3628L121.049 28.3335V13.1997C121.049 12.9269 121.268 12.7036 121.544 12.688L121.574 12.687H124.22C124.499 12.687 124.728 12.9006 124.744 13.1694L124.745 13.1997V15.897L124.948 15.4292C125.749 13.5834 127.636 12.3849 129.774 12.3569L130.003 12.356ZM49.8584 5.68213C50.1483 5.68224 50.3836 5.91123 50.3838 6.19385L50.3623 19.2534L56.0391 12.8442C56.1388 12.7356 56.2811 12.6732 56.4307 12.6733H59.4512C59.6519 12.6787 59.832 12.7958 59.915 12.9741C59.9979 13.1523 59.9697 13.3613 59.8418 13.5122L53.6035 20.4653L60.2568 28.0103C60.3819 28.1618 60.4077 28.3698 60.3242 28.5464C60.2406 28.7228 60.0615 28.8376 59.8623 28.8433H56.792C56.6432 28.8438 56.5015 28.7814 56.4033 28.6724L50.3643 21.9575L50.3838 28.3384C50.3838 28.4732 50.3273 28.6024 50.2285 28.6968C50.1298 28.791 49.9965 28.843 49.8584 28.8403H47.1494C46.8628 28.8403 46.6288 28.6159 46.624 28.3364V6.19385C46.6243 5.91122 46.8595 5.68222 47.1494 5.68213H49.8584ZM85.3643 5.68701C85.6505 5.68701 85.8828 5.91377 85.8828 6.19287V28.3335C85.8826 28.6124 85.6503 28.8384 85.3643 28.8384H82.6416C82.3557 28.8382 82.1243 28.6123 82.124 28.3335V6.19287C82.124 5.91387 82.3555 5.68719 82.6416 5.68701H85.3643ZM70.1211 15.5942C67.241 15.5943 64.9863 17.8693 64.9863 20.77C64.9866 23.6415 67.1964 25.8971 70.0352 25.9419L70.1211 25.9429V25.939C72.9994 25.939 75.2547 23.6705 75.2549 20.77C75.2549 17.8693 73.0013 15.5942 70.1211 15.5942ZM140.297 15.5942C137.418 15.5942 135.163 17.8693 135.163 20.77C135.163 23.6415 137.374 25.8971 140.211 25.9419L140.297 25.9429V25.939C143.177 25.9389 145.431 23.6705 145.432 20.77C145.432 17.8694 143.175 15.5943 140.297 15.5942Z" fill="#282828"/>
<path d="M17.9082 24.9443C18.7221 24.9446 19.3818 25.7385 19.3818 26.5322V33.3389C19.3818 34.1326 18.7221 34.9265 17.9082 34.9268C17.094 34.9268 16.4355 34.1328 16.4355 33.3389V26.5322C16.4355 25.7383 17.0958 24.9443 17.9082 24.9443ZM10.291 22.8594C10.8653 22.2977 11.9091 22.192 12.4834 22.752C13.0593 23.3136 12.9491 24.3289 12.375 24.8906L7.4375 29.7041C6.86319 30.2657 5.81937 30.3732 5.24512 29.8115C4.67092 29.2498 4.77931 28.2336 5.35352 27.6719L10.291 22.8594ZM23.333 22.752C23.9091 22.192 24.9504 22.2977 25.5264 22.8594L30.4619 27.6719C31.038 28.2336 31.1483 29.2498 30.5723 29.8115C29.9963 30.373 28.955 30.2655 28.3789 29.7041L23.4424 24.8906C22.8667 24.3322 22.7588 23.3084 23.333 22.752ZM17.9082 15.1523C19.2163 15.1526 20.2764 16.1873 20.2764 17.4629C20.2762 18.7384 19.2162 19.7722 17.9082 19.7725C16.6 19.7725 15.5393 18.7385 15.5391 17.4629C15.5391 16.1871 16.5999 15.1523 17.9082 15.1523ZM8.60938 16.0264C9.42344 16.0265 10.2373 16.6691 10.2373 17.4629C10.237 18.2565 9.42329 18.9002 8.60938 18.9004H1.62793C0.814049 18.9002 0.000298715 18.2565 0 17.4629C0 16.6691 0.8139 16.0266 1.62793 16.0264H8.60938ZM34.1895 16.0264C35.0035 16.0265 35.8174 16.6691 35.8174 17.4629C35.8171 18.2565 35.0034 18.9002 34.1895 18.9004H27.2012C26.3942 18.9003 25.5804 18.2565 25.5801 17.4629C25.5801 16.6691 26.394 16.0266 27.208 16.0264H34.1895ZM5.24512 5.12012C5.82112 4.55845 6.86319 4.66594 7.4375 5.22754L12.375 10.041C12.9491 10.5959 13.0594 11.6112 12.4834 12.1729C11.9092 12.7345 10.8663 12.627 10.292 12.0654L5.35449 7.25977C4.78026 6.69811 4.66926 5.68186 5.24512 5.12012ZM28.3789 5.2207C28.955 4.6593 29.9963 4.55355 30.5723 5.11328C31.1483 5.67328 31.038 6.69122 30.4619 7.25293L25.5264 12.0654C24.9504 12.6271 23.9091 12.7345 23.333 12.1729C22.7588 11.6113 22.8667 10.596 23.4424 10.0342L28.3789 5.2207ZM17.9082 0C18.7204 0.000303694 19.3818 0.79414 19.3818 1.58789V8.39453C19.3818 9.18657 18.7221 9.9909 17.9082 9.99121C17.0958 9.99121 16.4355 9.19552 16.4355 8.40332V1.58789C16.4355 0.793988 17.0958 0 17.9082 0Z" fill="#282828"/>
</svg>
